<svg width="1077.080029296875px" height="240.79999999999998px" xmlns="http://www.w3.org/2000/svg" viewBox="-288.5400146484375 -45.39999999999999 1077.080029296875 240.79999999999998" style="background: rgba(0, 0, 0, 0);" preserveAspectRatio="xMidYMid"><defs>
  <filter id="editing-scratch" x="-100%" y="-100%" width="300%" height="300%">
    <!-- COLOR -->
    <feFlood flood-color="rgba(100%,100%,100%,0)" flood-opacity="0.75" result="COLOR-blu"></feFlood>
    <feFlood flood-color="#666" flood-opacity="0.4" result="COLOR-red"></feFlood>
    <!-- COLOR END -->

    <!-- Texture -->
    <feTurbulence baseFrequency=".05" type="fractalNoise" numOctaves="3" seed="0" result="Texture_10"></feTurbulence>
    <feColorMatrix type="matrix" values="0 0 0 0 0,
    0 0 0 0 0,
    0 0 0 0 0,
    0 0 0 -2.1 1.1" in="Texture_10" result="Texture_20"></feColorMatrix>

    <feColorMatrix result="Texture_30" type="matrix" values="0 0 0 0 0,
    0 0 0 0 0,
    0 0 0 0 0,
    0 0 0 -1.7 1.8" in="Texture_10"></feColorMatrix>
    <!-- Texture -->

    <!-- FILL -->
    <feOffset dx="-3" dy="4" in="SourceAlpha" result="FILL_10"></feOffset>
    <feDisplacementMap scale="17" in="FILL_10" in2="Texture_10" result="FILL_20"></feDisplacementMap>
    <feComposite operator="in" in="Texture_30" in2="FILL_20" result="FILL_40"></feComposite>
    <feComposite operator="in" in="COLOR-blu" in2="FILL_40" result="FILL_50"></feComposite>
    <!-- FILL END-->

    <!-- OUTLINE -->
    <feMorphology operator="dilate" radius="3" in="SourceGraphic" result="OUTLINE_10"></feMorphology>
    <feComposite operator="out" in="OUTLINE_10" in2="SourceGraphic" result="OUTLINE_20"></feComposite>
    <feDisplacementMap scale="7" in="OUTLINE_20" in2="Texture_10" result="OUTLINE_30"></feDisplacementMap>
    <feComposite operator="arithmetic" k2="-1" k3="1" in="Texture_20" in2="OUTLINE_30" result="OUTLINE_40"></feComposite>
    <!-- OUTLINE END-->

    <!-- BEVEL OUTLINE -->
    <feConvolveMatrix order="8,8" divisor="1" kernelMatrix="1 0 0 0 0 0 0 0 0 1 0 0 0 0 0 0 0 0 1 0 0 0 0 0 0 0 0 1 0 0 0 0 0 0 0 0 1 0 0 0 0 0 0 0 0 1 0 0 0 0 0 0 0 0 1 0 0 0 0 0 0 0 0 1 " in="SourceGraphic" result="BEVEL_10"></feConvolveMatrix>
    <feMorphology operator="dilate" radius="2" in="BEVEL_10" result="BEVEL_20"></feMorphology>
    <feComposite operator="out" in="BEVEL_20" in2="BEVEL_10" result="BEVEL_30"></feComposite>
    <feDisplacementMap scale="7" in="BEVEL_30" in2="Texture_10" result="BEVEL_40"></feDisplacementMap>
    <feComposite operator="arithmetic" k2="-1" k3="1" in="Texture_20" in2="BEVEL_40" result="BEVEL_50"></feComposite>
    <feOffset dx="-7" dy="-7" in="BEVEL_50" result="BEVEL_60"></feOffset>
    <feComposite operator="out" in="BEVEL_60" in2="OUTLINE_10" result="BEVEL_70"></feComposite>
    <!-- BEVEL OUTLINE END -->

    <!-- BEVEL FILL -->
    <feOffset dx="-9" dy="-9" in="BEVEL_10" result="BEVEL-FILL_10"></feOffset>
    <feComposite operator="out" in="BEVEL-FILL_10" in2="OUTLINE_10" result="BEVEL-FILL_20"></feComposite>
    <feDisplacementMap scale="17" in="BEVEL-FILL_20" in2="Texture_10" result="BEVEL-FILL_30"></feDisplacementMap>
    <feComposite operator="in" in="COLOR-red" in2="BEVEL-FILL_30" result="BEVEL-FILL_50"></feComposite> <!-- -->
    <!-- BEVEL FILL END-->

    <feMerge result="merge2">
     <feMergeNode in="BEVEL-FILL_50"></feMergeNode>
     <feMergeNode in="BEVEL_70"></feMergeNode>
     <feMergeNode in="FILL_50"></feMergeNode>
      <feMergeNode in="OUTLINE_40"></feMergeNode>
    </feMerge>
  </filter>
</defs>
<g filter="url(#editing-scratch)"><g transform="translate(-138.01501405239105, 122.26000690460205)"><path d="M61.72-21.41L61.72-21.41L61.72-21.41Q64.36-18.07 64.36-12.65L64.36-12.65L64.36-12.65Q64.36-5.14 58.80-1.18L58.80-1.18L58.80-1.18Q53.24 2.78 44.48 2.78L44.48 2.78L44.48 2.78Q39.48 2.78 31.83 1.67L31.83 1.67L31.83 1.67Q16.82-0.70 12.23-0.70L12.23-0.70L12.23-0.70Q7.65-0.70 5.84-0.49L5.84-0.49L5.84-0.49Q4.03-0.28 1.11 0L1.11 0L18.21-91.74L78.12-91.74L78.12-91.74Q78.12-83.26 74.02-78.81L74.02-78.81L74.02-78.81Q69.92-74.37 61.86-74.37L61.86-74.37L61.86-74.37Q53.79-74.37 45.59-78.12L45.59-78.12L41.28-53.79L66.03-53.79L66.03-53.79Q66.03-46.43 62.41-42.33L62.41-42.33L62.41-42.33Q58.80-38.23 52.75-38.23L52.75-38.23L52.75-38.23Q46.70-38.23 42.95-39.62L42.95-39.62L42.95-39.62Q39.20-41.01 38.78-41.42L38.78-41.42L33.78-15.15L33.78-15.15Q37.11-14.73 43.37-14.73L43.37-14.73L43.37-14.73Q54.07-14.73 61.72-21.41ZM145.39-57.82L145.39-57.82L145.39-57.82Q145.39-51.99 140.53-48.37L140.53-48.37L140.53-48.37Q135.66-44.76 127.74-44.76L127.74-44.76L127.74-44.76Q124.41-44.76 122.46-45.73L122.46-45.73L122.46-45.73Q123.99-49.35 124.47-53.86L124.47-53.86L124.47-53.86Q124.96-58.38 124.96-59.63L124.96-59.63L124.96-59.63Q124.96-65.47 120.93-65.47L120.93-65.47L120.93-65.47Q118.15-65.47 115.02-61.99L115.02-61.99L115.02-61.99Q111.90-58.52 109.25-53.10L109.25-53.10L109.25-53.10Q103.42-40.59 103.42-27.94L103.42-27.94L103.42-27.94Q103.42-20.99 106.06-17.86L106.06-17.86L106.06-17.86Q108.70-14.73 114.54-14.73L114.54-14.73L114.54-14.73Q122.60-14.73 128.99-21.41L128.99-21.41L128.99-21.41Q130.80-23.49 131.77-25.85L131.77-25.85L131.77-25.85Q137.05-23.07 137.05-15.43L137.05-15.43L137.05-15.43Q137.05-7.65 128.44-2.50L128.44-2.50L128.44-2.50Q119.54 2.78 105.36 2.78L105.36 2.78L105.36 2.78Q77.15 2.78 77.15-27.11L77.15-27.11L77.15-27.11Q77.15-48.93 89.52-61.44L89.52-61.44L89.52-61.44Q101.47-73.67 123.43-73.67L123.43-73.67L123.43-73.67Q145.39-73.67 145.39-57.82ZM179.45 2.78L179.45 2.78L179.45 2.78Q148.87 2.78 148.87-25.99L148.87-25.99L148.87-25.99Q148.87-46.43 160.13-59.63L160.13-59.63L160.13-59.63Q172.08-73.67 192.79-73.67L192.79-73.67L192.79-73.67Q207.81-73.67 215.45-66.72L215.45-66.72L215.45-66.72Q223.10-59.77 223.10-45.18L223.10-45.18L223.10-45.18Q223.10-22.94 211.14-10.01L211.14-10.01L211.14-10.01Q199.47 2.78 179.45 2.78ZM183.06-57.69L183.06-57.69L183.06-57.69Q181.40-53.93 180.07-48.30L180.07-48.30L180.07-48.30Q178.75-42.67 177.09-33.78L177.09-33.78L177.09-33.78Q175.42-24.88 175.42-13.90L175.42-13.90L175.42-13.90Q175.42-10.29 176.60-7.92L176.60-7.92L176.60-7.92Q177.78-5.56 180.98-5.56L180.98-5.56L180.98-5.56Q184.18-5.56 186.19-7.09L186.19-7.09L186.19-7.09Q188.21-8.62 189.74-12.23L189.74-12.23L189.74-12.23Q192.52-18.63 194.74-30.51L194.74-30.51L194.74-30.51Q196.96-42.40 197.17-47.54L197.17-47.54L197.17-47.54Q197.38-52.68 197.38-56.50L197.38-56.50L197.38-56.50Q197.38-60.33 196.27-62.83L196.27-62.83L196.27-62.83Q195.16-65.33 192.03-65.33L192.03-65.33L192.03-65.33Q188.90-65.33 186.82-63.38L186.82-63.38L186.82-63.38Q184.73-61.44 183.06-57.69ZM331.38 2.78L331.38 2.78L331.38 2.78Q314.56 2.78 314.56-10.29L314.56-10.29L314.56-10.29Q314.56-15.99 316.99-27.04L316.99-27.04L316.99-27.04Q319.42-38.09 320.26-42.53L320.26-42.53L320.26-42.53Q322.20-52.68 322.20-55.88L322.20-55.88L322.20-55.88Q322.20-62.97 316.92-62.97L316.92-62.97L316.92-62.97Q313.45-62.97 310.11-58.17L310.11-58.17L310.11-58.17Q306.77-53.38 305.24-43.79L305.24-43.79L296.63 0L269.52 2.78L277.03-35.03L277.03-35.03Q278.28-41.28 279.39-48.37L279.39-48.37L279.39-48.37Q280.50-55.46 280.50-56.57L280.50-56.57L280.50-56.57Q280.50-62.97 275.78-62.97L275.78-62.97L275.78-62.97Q272.58-62.97 269.10-58.24L269.10-58.24L269.10-58.24Q265.63-53.52 263.68-43.79L263.68-43.79L255.20 0L227.82 2.78L242.42-70.89L265.07-73.67L262.71-59.63L262.71-59.63Q266.32-67.14 273.00-70.40L273.00-70.40L273.00-70.40Q279.67-73.67 290.09-73.67L290.09-73.67L290.09-73.67Q296.07-73.67 299.96-70.75L299.96-70.75L299.96-70.75Q303.85-67.83 305.11-63.11L305.11-63.11L305.11-63.11Q307.47-67.97 313.51-70.82L313.51-70.82L313.51-70.82Q319.56-73.67 327.00-73.67L327.00-73.67L327.00-73.67Q334.43-73.67 338.12-72.07L338.12-72.07L338.12-72.07Q341.80-70.47 344.03-67.83L344.03-67.83L344.03-67.83Q347.78-62.97 347.78-54.07L347.78-54.07L347.78-54.07Q347.78-45.31 344.03-27.11L344.03-27.11L344.03-27.11Q342.08-18.21 342.08-14.94L342.08-14.94L342.08-14.94Q342.08-11.68 343.96-9.73L343.96-9.73L343.96-9.73Q345.83-7.78 348.61-7.51L348.61-7.51L348.61-7.51Q347.22-2.78 342.43 0L342.43 0L342.43 0Q337.63 2.78 331.38 2.78ZM459.39 2.78L459.39 2.78L459.39 2.78Q442.58 2.78 442.58-10.29L442.58-10.29L442.58-10.29Q442.58-15.99 445.01-27.04L445.01-27.04L445.01-27.04Q447.44-38.09 448.27-42.53L448.27-42.53L448.27-42.53Q450.22-52.68 450.22-55.88L450.22-55.88L450.22-55.88Q450.22-62.97 444.94-62.97L444.94-62.97L444.94-62.97Q441.46-62.97 438.13-58.17L438.13-58.17L438.13-58.17Q434.79-53.38 433.26-43.79L433.26-43.79L424.64 0L397.54 2.78L405.05-35.03L405.05-35.03Q406.30-41.28 407.41-48.37L407.41-48.37L407.41-48.37Q408.52-55.46 408.52-56.57L408.52-56.57L408.52-56.57Q408.52-62.97 403.80-62.97L403.80-62.97L403.80-62.97Q400.60-62.97 397.12-58.24L397.12-58.24L397.12-58.24Q393.65-53.52 391.70-43.79L391.70-43.79L383.22 0L355.84 2.78L370.44-70.89L393.09-73.67L390.73-59.63L390.73-59.63Q394.34-67.14 401.01-70.40L401.01-70.40L401.01-70.40Q407.69-73.67 418.11-73.67L418.11-73.67L418.11-73.67Q424.09-73.67 427.98-70.75L427.98-70.75L427.98-70.75Q431.87-67.83 433.12-63.11L433.12-63.11L433.12-63.11Q435.49-67.97 441.53-70.82L441.53-70.82L441.53-70.82Q447.58-73.67 455.02-73.67L455.02-73.67L455.02-73.67Q462.45-73.67 466.14-72.07L466.14-72.07L466.14-72.07Q469.82-70.47 472.04-67.83L472.04-67.83L472.04-67.83Q475.80-62.97 475.80-54.07L475.80-54.07L475.80-54.07Q475.80-45.31 472.04-27.11L472.04-27.11L472.04-27.11Q470.10-18.21 470.10-14.94L470.10-14.94L470.10-14.94Q470.10-11.68 471.97-9.73L471.97-9.73L471.97-9.73Q473.85-7.78 476.63-7.51L476.63-7.51L476.63-7.51Q475.24-2.78 470.45 0L470.45 0L470.45 0Q465.65 2.78 459.39 2.78ZM543.63-23.49L543.63-23.49L543.63-23.49Q547.10-21.13 547.10-15.92L547.10-15.92L547.10-15.92Q547.10-10.70 544.46-7.37L544.46-7.37L544.46-7.37Q541.82-4.03 537.51-1.81L537.51-1.81L537.51-1.81Q528.62 2.78 519.03 2.78L519.03 2.78L519.03 2.78Q509.44 2.78 503.81 0.70L503.81 0.70L503.81 0.70Q498.18-1.39 494.42-5.28L494.42-5.28L494.42-5.28Q487.06-12.65 487.06-26.13L487.06-26.13L487.06-26.13Q487.06-47.12 498.45-59.91L498.45-59.91L498.45-59.91Q510.69-73.67 531.95-73.67L531.95-73.67L531.95-73.67Q545.16-73.67 551.69-68.11L551.69-68.11L551.69-68.11Q556.56-63.94 556.56-57.13L556.56-57.13L556.56-57.13Q556.56-32.67 514.30-32.67L514.30-32.67L514.30-32.67Q513.74-29.05 513.74-25.99L513.74-25.99L513.74-25.99Q513.74-19.60 516.59-17.17L516.59-17.17L516.59-17.17Q519.44-14.73 524.73-14.73L524.73-14.73L524.73-14.73Q530.01-14.73 535.64-17.17L535.64-17.17L535.64-17.17Q541.27-19.60 543.63-23.49ZM515.27-38.64L515.27-38.64L515.27-38.64Q525.14-38.64 530.84-44.76L530.84-44.76L530.84-44.76Q536.54-50.60 536.54-59.91L536.54-59.91L536.54-59.91Q536.54-63.11 535.36-64.84L535.36-64.84L535.36-64.84Q534.18-66.58 531.81-66.58L531.81-66.58L531.81-66.58Q529.45-66.58 527.44-65.68L527.44-65.68L527.44-65.68Q525.42-64.77 523.34-61.72L523.34-61.72L523.34-61.72Q518.19-54.77 515.27-38.64ZM604.79-39.06L604.79-39.06L604.79-39.06Q609.79-47.96 609.79-56.99L609.79-56.99L609.79-56.99Q609.79-62.97 605.48-62.97L605.48-62.97L605.48-62.97Q602.15-62.97 598.67-57.27L598.67-57.27L598.67-57.27Q595.06-51.57 593.95-44.20L593.95-44.20L586.72 0L557.95 2.78L572.12-70.89L595.06-73.67L592.56-59.63L592.56-59.63Q599.37-73.67 614.66-73.67L614.66-73.67L614.66-73.67Q622.72-73.67 627.10-69.50L627.10-69.50L627.10-69.50Q631.48-65.33 631.48-56.78L631.48-56.78L631.48-56.78Q631.48-48.23 625.85-42.81L625.85-42.81L625.85-42.81Q620.22-37.39 610.63-37.39L610.63-37.39L610.63-37.39Q606.46-37.39 604.79-39.06ZM701.95-57.82L701.95-57.82L701.95-57.82Q701.95-51.99 697.08-48.37L697.08-48.37L697.08-48.37Q692.22-44.76 684.30-44.76L684.30-44.76L684.30-44.76Q680.96-44.76 679.01-45.73L679.01-45.73L679.01-45.73Q680.54-49.35 681.03-53.86L681.03-53.86L681.03-53.86Q681.52-58.38 681.52-59.63L681.52-59.63L681.52-59.63Q681.52-65.47 677.49-65.47L677.49-65.47L677.49-65.47Q674.71-65.47 671.58-61.99L671.58-61.99L671.58-61.99Q668.45-58.52 665.81-53.10L665.81-53.10L665.81-53.10Q659.97-40.59 659.97-27.94L659.97-27.94L659.97-27.94Q659.97-20.99 662.61-17.86L662.61-17.86L662.61-17.86Q665.25-14.73 671.09-14.73L671.09-14.73L671.09-14.73Q679.15-14.73 685.55-21.41L685.55-21.41L685.55-21.41Q687.36-23.49 688.33-25.85L688.33-25.85L688.33-25.85Q693.61-23.07 693.61-15.43L693.61-15.43L693.61-15.43Q693.61-7.65 684.99-2.50L684.99-2.50L684.99-2.50Q676.10 2.78 661.92 2.78L661.92 2.78L661.92 2.78Q633.70 2.78 633.70-27.11L633.70-27.11L633.70-27.11Q633.70-48.93 646.07-61.44L646.07-61.44L646.07-61.44Q658.03-73.67 679.99-73.67L679.99-73.67L679.99-73.67Q701.95-73.67 701.95-57.82ZM762.00-23.49L762.00-23.49L762.00-23.49Q765.47-21.13 765.47-15.92L765.47-15.92L765.47-15.92Q765.47-10.70 762.83-7.37L762.83-7.37L762.83-7.37Q760.19-4.03 755.88-1.81L755.88-1.81L755.88-1.81Q746.99 2.78 737.39 2.78L737.39 2.78L737.39 2.78Q727.80 2.78 722.17 0.70L722.17 0.70L722.17 0.70Q716.54-1.39 712.79-5.28L712.79-5.28L712.79-5.28Q705.42-12.65 705.42-26.13L705.42-26.13L705.42-26.13Q705.42-47.12 716.82-59.91L716.82-59.91L716.82-59.91Q729.05-73.67 750.32-73.67L750.32-73.67L750.32-73.67Q763.53-73.67 770.06-68.11L770.06-68.11L770.06-68.11Q774.92-63.94 774.92-57.13L774.92-57.13L774.92-57.13Q774.92-32.67 732.67-32.67L732.67-32.67L732.67-32.67Q732.11-29.05 732.11-25.99L732.11-25.99L732.11-25.99Q732.11-19.60 734.96-17.17L734.96-17.17L734.96-17.17Q737.81-14.73 743.09-14.73L743.09-14.73L743.09-14.73Q748.38-14.73 754.01-17.17L754.01-17.17L754.01-17.17Q759.63-19.60 762.00-23.49ZM733.64-38.64L733.64-38.64L733.64-38.64Q743.51-38.64 749.21-44.76L749.21-44.76L749.21-44.76Q754.91-50.60 754.91-59.91L754.91-59.91L754.91-59.91Q754.91-63.11 753.73-64.84L753.73-64.84L753.73-64.84Q752.55-66.58 750.18-66.58L750.18-66.58L750.18-66.58Q747.82-66.58 745.80-65.68L745.80-65.68L745.80-65.68Q743.79-64.77 741.70-61.72L741.70-61.72L741.70-61.72Q736.56-54.77 733.64-38.64Z" fill="#000000"></path></g></g><style>text {
  font-size: 64px;
  font-family: Arial Black;
  dominant-baseline: central;
  text-anchor: middle;
}</style></svg>